<?xml version="1.0" encoding="utf-8"?>
<!-- Uploaded to SVGRepo https://www.svgrepo.com -->
<svg version="1.2" baseProfile="tiny" id="Layer_1" xmlns="http://www.w3.org/2000/svg" xmlns:xlink="http://www.w3.org/1999/xlink"
	 x="0px" y="0px" viewBox="0 0 256 256" xml:space="preserve">
<path id="XMLID_31_" d="M202.2,183.1c0-50.2-36.1-48.2-40.6-87c0-0.3,0-0.7,0-1c0-1.9-0.1-3.8-0.4-5.7
	c-1.5-18.2-14.6-33.2-31.9-37.3c22.6-5.5,39.2-25.9,39.2-50.2c-21,0-39.4,12.6-47.4,30.6V8h-8v43.1l-4.3,1.1
	c-17.3,4.2-30.3,19.1-31.8,37.3c-0.3,1.9-0.3,3.8-0.3,5.7c0,0.3,0.1,0.7,0.1,1C72.1,135,36,133,36,183.1c0,0-0.1,3.6-0.1,4.6
	c0,35.6,28.2,64.5,59.9,64.5c5.3,0,10.1-0.8,15.1-2.4v6.2h8h8v-6.2c5,1.5,9.9,2.4,15.2,2.4c31.8,0,60-28.9,60-64.5
	C202.2,186.7,202.2,183.1,202.2,183.1z"/>
</svg>
