<?xml version="1.0" encoding="iso-8859-1"?>
<!-- Generator: Adobe Illustrator 19.0.0, SVG Export Plug-In . SVG Version: 6.00 Build 0)  -->
<svg version="1.1" id="Layer_1" xmlns="http://www.w3.org/2000/svg" xmlns:xlink="http://www.w3.org/1999/xlink" x="0px" y="0px"
	 viewBox="0 0 511.819 511.819" style="enable-background:new 0 0 511.819 511.819;" xml:space="preserve">
<g>
	<g>
		<path d="M367.909,43.819c-1.2,0-20.4-0.4-43.2,15.2c0.4-26.4-4.4-43.6-4.8-44.4c-0.4-1.2-1.2-2-2-2.4c-0.8-0.4-2-0.4-2.8,0
			c-1.2,0.4-17.2,6-35.6,24.4c-2.8-8.8-8.8-24.4-21.2-35.6c-1.6-1.6-4-1.2-5.6,0.4c-0.8,0.4-16.8,17.6-21.6,39.2
			c-19.6-24.8-41.2-28.4-42.4-28.8c-2-0.4-4,1.2-4.4,3.2c-0.4,1.2-2.8,15.2-0.4,36c-21.6-10-38.4-11.2-39.2-11.2
			c-1.2,0-2,0.4-2.8,1.2c-0.8,0.8-1.2,2-1.2,2.8c-0.4,2-2.4,45.6,40.8,86l25.6,25.6l48-48l50,49.2c0,0,21.2-21.2,21.6-21.6
			c44.8-41.2,45.2-85.2,45.2-87.2S370.309,43.819,367.909,43.819z"/>
	</g>
</g>
<g>
	<g>
		<path d="M181.509,129.819C180.709,130.219,181.109,130.219,181.509,129.819L181.509,129.819z"/>
	</g>
</g>
<g>
	<g>
		
			<rect x="229.439" y="140.377" transform="matrix(0.7071 -0.7071 0.7071 0.7071 -43.0783 229.9534)" width="53.199" height="53.199"/>
	</g>
</g>
<g>
	<g>
		<path d="M398.309,186.619l-3.6,3.6l-27.6,27.6l35.6,35.6l10-10l8.4-8.4C416.309,217.419,408.309,201.019,398.309,186.619z"/>
	</g>
</g>
<g>
	<g>
		<polygon points="403.109,276.219 365.109,313.819 403.109,351.419 427.909,326.619 427.909,301.019 		"/>
	</g>
</g>
<g>
	<g>
		
			<rect x="227.786" y="238.947" transform="matrix(0.7071 -0.7071 0.7071 0.7071 -113.8418 259.0551)" width="55.999" height="55.999"/>
	</g>
</g>
<g>
	<g>
		<rect x="229.173" y="434.072" transform="matrix(0.7071 -0.7071 0.7071 0.7071 -250.8302 315.786)" width="53.2" height="53.2"/>
	</g>
</g>
<g>
	<g>
		<rect x="230.857" y="339.474" transform="matrix(0.7071 -0.7071 0.7071 0.7071 -182.8663 287.8698)" width="50.4" height="50.4"/>
	</g>
</g>
<g>
	<g>
		
			<rect x="328.299" y="240.607" transform="matrix(0.7071 -0.7071 0.7071 0.7071 -84.0063 328.8044)" width="53.199" height="50.399"/>
	</g>
</g>
<g>
	<g>
		<path d="M207.109,472.219l-23.6,23.6c-0.8,0.8-1.6,1.2-2.4,1.6c19.2,8.4,40,13.6,62,14.4l1.6-2L207.109,472.219z"/>
	</g>
</g>
<g>
	<g>
		<path d="M402.709,374.219l-39.6,39.6l28.4,28.4c1.6,1.6,2.4,3.2,2.4,5.2c12.4-16,21.6-34.4,27.6-54.4L402.709,374.219z"/>
	</g>
</g>
<g>
	<g>
		<path d="M414.309,362.619l11.6,11.6c1.2-8,2-16.4,2-25.2L414.309,362.619z"/>
	</g>
</g>
<g>
	<g>
		<path d="M109.109,374.219l-18.8,18.8c5.6,19.2,14.4,37.2,26.4,53.2l32-32.4L109.109,374.219z"/>
	</g>
</g>
<g>
	<g>
		<path d="M127.909,201.019l-14.8-14.8c-10,14.4-18,30.8-22.8,48.4l18.8,18.8l35.6-35.6L127.909,201.019z"/>
	</g>
</g>
<g>
	<g>
		<path d="M85.909,253.419c-1.2,8.4-2,16.8-2,25.2l13.6-13.6L85.909,253.419z"/>
	</g>
</g>
<g>
	<g>
		<path d="M304.709,472.219l-37.6,37.6l2,2c21.6-0.8,42.4-5.6,61.2-14L304.709,472.219z"/>
	</g>
</g>
<g>
	<g>
		<path d="M345.509,137.819l-4.8,4.8l-24.4,24.4l39.6,39.6l27.6-27.6l5.2-5.2C376.309,159.419,361.909,147.419,345.509,137.819z"/>
	</g>
</g>
<g>
	<g>
		
			<rect x="324.891" y="337.214" transform="matrix(0.7071 -0.7071 0.7071 0.7071 -153.8954 356.0902)" width="55.999" height="53.2"/>
	</g>
</g>
<g>
	<g>
		<path d="M425.909,253.419l-1.2,1.2l-10,10l13.2,14C427.909,270.219,427.109,261.819,425.909,253.419z"/>
	</g>
</g>
<g>
	<g>
		<rect x="278.716" y="385.931" transform="matrix(0.7071 -0.7071 0.7071 0.7071 -202.6883 335.728)" width="50.4" height="53.2"/>
	</g>
</g>
<g>
	<g>
		
			<rect x="181.603" y="387.623" transform="matrix(0.7071 -0.7071 0.7071 0.7071 -230.9286 268.1345)" width="53.199" height="50.4"/>
	</g>
</g>
<g>
	<g>
		<path d="M386.309,455.819c-2,0-4-0.8-5.6-2.4l-28.4-28.4l-35.6,35.6l29.2,29.2c15.2-8.8,29.2-20.4,41.2-34
			C386.709,455.819,386.709,455.819,386.309,455.819z"/>
	</g>
</g>
<g>
	<g>
		<path d="M195.509,460.619l-35.6-35.6l-33.2,33.2c12.4,13.6,26.8,24.8,43.2,33.6c-0.8-2.8,0-5.6,2-7.6L195.509,460.619z"/>
	</g>
</g>
<g>
	<g>
		<path d="M166.309,137.819c-16.4,9.2-31.2,21.6-43.2,36l16,16l16.8,16.8l39.6-39.6L166.309,137.819z"/>
	</g>
</g>
<g>
	<g>
		
			<rect x="177.912" y="190.518" transform="matrix(0.7071 -0.7071 0.7071 0.7071 -93.2157 209.1938)" width="55.999" height="53.199"/>
	</g>
</g>
<g>
	<g>
		
			<rect x="279.024" y="188.819" transform="matrix(0.7071 -0.7071 0.7071 0.7071 -63.7988 279.6134)" width="53.2" height="55.999"/>
	</g>
</g>
<g>
	<g>
		
			<rect x="132.296" y="335.823" transform="matrix(0.7071 -0.7071 0.7071 0.7071 -210.7221 218.9174)" width="53.199" height="55.999"/>
	</g>
</g>
<g>
	<g>
		
			<rect x="181.838" y="287.684" transform="matrix(0.7071 -0.7071 0.7071 0.7071 -162.5818 238.8587)" width="50.4" height="55.999"/>
	</g>
</g>
<g>
	<g>
		
			<rect x="276.75" y="290.475" transform="matrix(0.7071 -0.7071 0.7071 0.7071 -133.9563 307.9495)" width="55.999" height="50.399"/>
	</g>
</g>
<g>
	<g>
		
			<rect x="132.009" y="239.225" transform="matrix(0.7071 -0.7071 0.7071 0.7071 -141.921 189.0217)" width="50.4" height="53.199"/>
	</g>
</g>
<g>
	<g>
		<path d="M83.909,349.019c0,8.8,0.8,17.2,2,25.2l11.6-11.6L83.909,349.019z"/>
	</g>
</g>
<g>
	<g>
		<polygon points="108.709,276.219 83.909,301.019 83.909,326.619 108.709,351.419 146.709,313.819 		"/>
	</g>
</g>
<g>
</g>
<g>
</g>
<g>
</g>
<g>
</g>
<g>
</g>
<g>
</g>
<g>
</g>
<g>
</g>
<g>
</g>
<g>
</g>
<g>
</g>
<g>
</g>
<g>
</g>
<g>
</g>
<g>
</g>
</svg>
